<?xml version="1.0" standalone="no"?>
<!DOCTYPE svg PUBLIC "-//W3C//DTD SVG 20010904//EN"
 "http://www.w3.org/TR/2001/REC-SVG-20010904/DTD/svg10.dtd">
<svg version="1.0" xmlns="http://www.w3.org/2000/svg"
 width="800.000000pt" height="800.000000pt" viewBox="0 0 800.000000 800.000000"
 preserveAspectRatio="xMidYMid meet">
<metadata>
Created by potrace 1.14, written by Peter Selinger 2001-2017
</metadata>
<g transform="translate(0.000000,800.000000) scale(0.100000,-0.100000)"
fill="#000000" stroke="none">
<path d="M3895 7900 c-3 -5 -22 -10 -41 -10 -19 0 -34 -4 -34 -9 0 -5 -20 -12
-45 -15 -25 -4 -45 -11 -45 -17 0 -5 -9 -9 -20 -9 -11 0 -20 -4 -20 -10 0 -5
-6 -10 -14 -10 -8 0 -21 -6 -28 -12 -16 -15 -47 -35 -68 -45 -33 -15 -162
-157 -182 -200 -6 -13 -15 -23 -20 -23 -4 0 -8 -8 -8 -17 0 -10 -7 -27 -15
-37 -8 -11 -15 -28 -15 -37 0 -10 -3 -19 -8 -21 -4 -1 -15 -33 -25 -70 -22
-86 -23 -323 -2 -383 8 -22 15 -48 15 -57 0 -10 5 -18 10 -18 19 0 10 -42 -10
-47 -11 -3 -20 -9 -20 -13 0 -4 -17 -15 -37 -26 -21 -10 -46 -27 -58 -37 -11
-10 -30 -20 -42 -23 -13 -4 -23 -9 -23 -13 0 -3 -17 -15 -37 -26 -21 -11 -40
-22 -43 -26 -3 -3 -21 -14 -40 -25 -19 -10 -37 -21 -40 -24 -3 -3 -36 -26 -75
-49 -38 -24 -71 -48 -73 -53 -2 -4 -10 -8 -17 -8 -8 0 -20 -6 -27 -13 -7 -6
-30 -21 -50 -32 -21 -11 -38 -22 -38 -26 0 -4 -8 -9 -17 -13 -20 -6 -41 -19
-90 -53 -17 -13 -39 -23 -47 -23 -9 0 -16 -3 -16 -8 0 -4 -16 -16 -35 -26 -19
-11 -35 -22 -35 -26 0 -5 -11 -11 -25 -14 -14 -4 -25 -11 -25 -16 0 -6 -7 -10
-15 -10 -8 0 -15 -4 -15 -9 0 -5 -11 -12 -25 -15 -14 -4 -25 -11 -25 -16 0 -6
-7 -10 -15 -10 -8 0 -15 -4 -15 -10 0 -5 -11 -12 -25 -16 -14 -3 -25 -10 -25
-15 0 -5 -7 -9 -15 -9 -8 0 -15 -4 -15 -10 0 -5 -11 -12 -25 -16 -14 -3 -25
-10 -25 -15 0 -5 -7 -9 -15 -9 -8 0 -15 -4 -15 -9 0 -5 -10 -13 -22 -17 -13
-4 -25 -10 -28 -14 -3 -4 -36 -27 -75 -51 -38 -23 -72 -46 -75 -49 -11 -12
-69 -40 -82 -40 -8 0 -27 12 -41 28 -42 43 -70 67 -105 87 -17 11 -32 22 -32
26 0 4 -13 10 -30 14 -16 4 -30 11 -30 16 0 5 -9 9 -20 9 -11 0 -20 4 -20 9 0
6 -20 13 -45 17 -25 3 -45 10 -45 15 0 5 -20 9 -44 9 -25 0 -48 5 -51 10 -3 6
-52 10 -111 10 -63 0 -104 -4 -104 -10 0 -5 -20 -10 -45 -10 -25 0 -45 -4 -45
-9 0 -5 -20 -12 -45 -15 -25 -4 -45 -11 -45 -17 0 -5 -9 -9 -20 -9 -11 0 -20
-4 -20 -9 0 -5 -13 -12 -30 -16 -16 -4 -30 -10 -30 -14 0 -4 -15 -15 -32 -26
-34 -20 -58 -40 -106 -88 -51 -52 -68 -72 -87 -105 -11 -17 -22 -32 -26 -32
-4 0 -10 -13 -14 -30 -4 -16 -11 -30 -16 -30 -5 0 -9 -9 -9 -20 0 -11 -4 -20
-9 -20 -6 0 -13 -20 -17 -45 -3 -25 -10 -45 -15 -45 -5 0 -9 -20 -9 -45 0 -25
-4 -45 -10 -45 -6 0 -10 -45 -10 -115 0 -70 4 -115 10 -115 6 0 10 -18 10 -40
0 -22 4 -40 9 -40 4 0 11 -16 14 -36 7 -41 29 -94 39 -94 3 0 9 -14 13 -30 4
-17 11 -30 16 -30 5 0 9 -5 9 -11 0 -6 6 -16 13 -24 6 -7 23 -28 37 -46 46
-60 125 -131 167 -152 13 -5 23 -14 23 -19 0 -4 7 -8 15 -8 8 0 15 -4 15 -10
0 -5 16 -12 35 -16 19 -3 35 -10 35 -15 0 -5 11 -9 25 -9 14 0 25 -4 25 -10 0
-5 27 -12 60 -16 l60 -7 0 -788 0 -789 -40 0 c-22 0 -40 -4 -40 -10 0 -5 -8
-10 -19 -10 -10 0 -32 -7 -47 -15 -16 -8 -37 -15 -46 -15 -10 0 -18 -3 -18 -7
0 -5 -19 -17 -43 -28 -23 -11 -47 -24 -53 -30 -6 -5 -30 -26 -54 -45 -67 -54
-122 -115 -143 -157 -5 -13 -14 -23 -18 -23 -4 0 -10 -14 -14 -30 -4 -17 -11
-30 -16 -30 -5 0 -9 -9 -9 -20 0 -11 -4 -20 -9 -20 -6 0 -13 -20 -17 -45 -3
-25 -10 -45 -15 -45 -5 0 -9 -20 -9 -45 0 -25 -4 -45 -10 -45 -6 0 -10 -45
-10 -115 0 -70 4 -115 10 -115 6 0 10 -18 10 -40 0 -22 4 -40 9 -40 5 0 12
-21 16 -47 4 -27 10 -50 14 -53 3 -3 19 -31 35 -62 16 -32 32 -58 37 -58 4 0
10 -9 14 -20 10 -30 164 -180 185 -180 6 0 10 -4 10 -9 0 -5 11 -12 25 -15 14
-4 25 -11 25 -16 0 -6 9 -10 20 -10 11 0 20 -4 20 -10 0 -5 16 -12 35 -16 19
-3 35 -10 35 -15 0 -5 15 -9 34 -9 19 0 36 -6 38 -12 6 -18 332 -18 349 -1 7
7 26 13 41 13 15 0 28 4 28 9 0 5 18 12 40 16 22 4 40 11 40 16 0 5 9 9 20 9
11 0 20 4 20 10 0 5 11 12 25 16 14 3 25 9 25 13 0 4 13 14 28 23 16 10 53 42
84 73 l55 55 44 -25 c24 -14 56 -30 72 -36 15 -6 27 -15 27 -20 0 -5 7 -9 15
-9 8 0 15 -4 15 -9 0 -5 13 -12 30 -16 16 -4 30 -11 30 -16 0 -5 7 -9 15 -9 8
0 15 -4 15 -10 0 -5 11 -12 25 -16 14 -3 25 -9 25 -13 0 -4 20 -15 45 -26 25
-11 45 -23 45 -26 0 -4 8 -9 18 -13 17 -5 52 -26 62 -36 3 -3 22 -14 43 -25
20 -11 37 -23 37 -27 0 -5 8 -8 19 -8 10 0 24 -7 31 -15 7 -8 19 -15 26 -15 8
0 14 -3 14 -7 0 -5 18 -17 40 -27 22 -11 40 -23 40 -27 0 -4 14 -10 30 -14 17
-4 30 -11 30 -16 0 -5 6 -9 14 -9 8 0 16 -3 18 -7 3 -7 17 -16 103 -62 17 -9
32 -19 33 -23 2 -5 10 -8 18 -8 8 0 14 -4 14 -10 0 -5 6 -10 14 -10 8 0 21 -6
28 -12 8 -7 23 -18 33 -24 11 -6 47 -26 80 -44 33 -18 62 -36 65 -39 3 -3 22
-15 43 -26 20 -11 37 -23 37 -26 0 -4 14 -10 30 -14 17 -4 30 -11 30 -16 0 -5
7 -9 15 -9 8 0 15 -3 15 -7 0 -5 20 -17 45 -28 42 -18 59 -35 35 -35 -5 0 -10
-8 -10 -17 0 -10 -7 -36 -15 -58 -10 -28 -14 -85 -14 -190 0 -105 4 -162 14
-190 8 -22 15 -48 15 -57 0 -10 5 -18 10 -18 6 0 10 -8 10 -18 0 -10 7 -27 15
-38 8 -10 15 -27 15 -36 0 -10 5 -18 10 -18 6 0 10 -5 10 -11 0 -35 168 -208
230 -236 8 -4 21 -13 28 -20 7 -7 20 -13 28 -13 8 0 14 -4 14 -10 0 -5 9 -10
20 -10 11 0 20 -4 20 -9 0 -6 20 -13 45 -17 25 -3 45 -10 45 -15 0 -5 16 -9
35 -9 19 0 35 -4 35 -10 0 -6 52 -10 135 -10 83 0 135 4 135 10 0 6 18 10 40
10 22 0 40 4 40 9 0 6 20 13 45 17 25 3 45 10 45 15 0 5 9 9 20 9 11 0 20 4
20 9 0 5 10 11 23 15 12 3 35 17 51 31 16 14 33 25 38 25 11 0 158 149 158
161 0 4 6 14 13 21 20 21 47 75 47 92 0 9 4 16 9 16 5 0 12 18 16 40 4 22 11
40 16 40 5 0 9 16 9 35 0 19 5 35 10 35 6 0 10 60 10 160 0 88 -4 160 -9 160
-5 0 -11 15 -14 33 -3 17 -8 43 -12 58 -6 22 -2 28 32 45 21 10 40 22 43 25 3
3 21 14 40 25 19 10 37 21 40 24 3 3 23 14 45 25 22 11 46 25 52 32 7 6 26 17
43 25 16 7 30 16 30 19 0 4 11 10 25 13 14 4 25 11 25 16 0 6 9 10 20 10 11 0
20 4 20 10 0 5 11 12 25 16 14 3 25 10 25 15 0 5 7 9 15 9 8 0 15 4 15 9 0 5
11 12 25 15 14 4 25 11 25 16 0 6 7 10 15 10 8 0 15 4 15 9 0 5 14 12 30 16
17 4 30 11 30 16 0 5 7 9 15 9 8 0 15 4 15 8 0 4 15 15 33 23 40 20 100 52
107 59 10 10 45 31 63 36 9 4 17 9 17 13 0 4 20 15 45 26 25 11 45 23 45 26 0
4 8 9 18 13 17 5 52 26 62 36 3 3 20 13 38 23 17 9 47 25 65 35 17 9 34 20 35
25 2 4 10 7 17 7 7 0 15 3 17 8 2 4 18 15 36 24 17 10 47 26 65 35 17 10 34
21 35 26 2 4 9 7 17 7 7 0 18 6 25 14 24 30 53 23 101 -24 62 -61 97 -90 109
-90 6 0 10 -4 10 -10 0 -5 11 -12 25 -16 14 -3 25 -10 25 -15 0 -5 9 -9 20 -9
11 0 20 -4 20 -10 0 -5 18 -13 40 -16 22 -4 40 -10 40 -15 0 -5 13 -9 29 -9
16 0 31 -6 34 -12 5 -18 349 -18 355 0 2 6 17 12 33 12 16 0 29 4 29 9 0 5 18
11 40 15 22 3 40 11 40 16 0 6 9 10 20 10 11 0 20 4 20 9 0 5 11 12 25 15 14
4 25 11 25 16 0 6 5 10 10 10 14 0 27 11 103 87 74 73 87 89 87 103 0 5 4 10
10 10 5 0 12 11 16 25 3 14 9 25 13 25 3 0 12 15 20 33 7 17 20 45 27 61 8 16
14 37 14 47 0 9 6 19 13 21 9 4 12 53 12 203 0 150 -3 199 -12 202 -7 3 -13
18 -13 34 0 16 -4 29 -10 29 -5 0 -12 16 -16 35 -3 19 -9 35 -13 35 -3 0 -15
19 -26 43 -11 23 -22 44 -25 47 -4 3 -19 23 -36 44 -37 50 -70 83 -120 120
-21 17 -41 32 -44 36 -3 3 -24 14 -47 25 -24 11 -43 23 -43 28 0 4 -8 7 -17 7
-10 0 -31 7 -47 15 -15 8 -37 15 -47 15 -11 0 -19 4 -19 9 0 6 -19 11 -42 13
l-43 3 -3 786 -2 786 62 7 c35 3 65 11 66 16 2 6 15 10 28 10 13 0 24 5 24 10
0 6 5 10 11 10 12 0 81 31 89 40 3 3 18 14 35 24 40 26 50 35 93 78 61 62 92
98 92 108 0 6 4 10 10 10 5 0 12 11 16 25 3 14 10 25 15 25 5 0 9 9 9 20 0 11
4 20 10 20 5 0 12 16 16 35 3 19 10 35 15 35 5 0 9 10 9 23 0 13 6 29 13 35 9
10 12 64 12 202 0 138 -3 192 -12 202 -7 6 -13 22 -13 35 0 13 -4 23 -9 23 -5
0 -12 16 -15 35 -4 19 -10 35 -14 35 -4 0 -16 20 -27 45 -11 25 -23 45 -27 45
-5 0 -8 4 -8 10 0 5 -12 23 -27 39 -16 16 -39 42 -54 58 -33 37 -88 82 -116
96 -13 5 -23 14 -23 18 0 4 -13 10 -30 14 -16 4 -30 11 -30 16 0 5 -9 9 -20 9
-11 0 -20 4 -20 9 0 6 -20 13 -45 17 -25 3 -45 10 -45 15 0 5 -20 9 -45 9 -25
0 -45 5 -45 10 0 6 -43 10 -109 10 -63 0 -112 -4 -116 -10 -3 -5 -24 -10 -46
-10 -21 0 -39 -4 -39 -9 0 -5 -20 -12 -45 -15 -25 -4 -45 -11 -45 -17 0 -5 -6
-9 -14 -9 -17 0 -80 -32 -84 -42 -2 -5 -10 -8 -18 -8 -8 0 -14 -4 -14 -9 0 -5
-8 -12 -18 -15 -9 -3 -41 -28 -69 -56 -28 -27 -57 -50 -63 -50 -14 0 -69 30
-88 48 -7 6 -17 12 -21 12 -4 0 -16 8 -27 18 -11 9 -36 26 -57 36 -20 11 -37
22 -37 26 0 5 -11 11 -25 14 -14 4 -25 11 -25 16 0 6 -7 10 -15 10 -8 0 -15 4
-15 9 0 5 -11 12 -25 15 -14 4 -25 11 -25 16 0 6 -7 10 -15 10 -8 0 -15 4 -15
10 0 5 -11 12 -25 16 -14 3 -25 10 -25 15 0 5 -7 9 -15 9 -8 0 -15 4 -15 10 0
5 -11 12 -25 16 -14 3 -25 10 -25 15 0 5 -7 9 -15 9 -8 0 -15 4 -15 9 0 5 -8
11 -17 15 -10 3 -31 15 -48 26 -16 11 -38 23 -47 26 -10 4 -18 10 -18 14 0 4
-8 10 -17 14 -18 5 -53 26 -63 36 -7 7 -43 29 -60 37 -8 4 -21 13 -28 20 -7 7
-20 13 -28 13 -8 0 -14 5 -14 10 0 6 -7 10 -15 10 -8 0 -15 4 -15 9 0 5 -10
13 -22 17 -13 4 -25 10 -28 14 -3 4 -36 27 -75 51 -38 23 -72 46 -75 49 -3 3
-21 14 -40 24 -19 11 -37 22 -40 25 -3 4 -22 15 -42 26 -21 11 -38 23 -38 26
0 4 -10 9 -23 13 -12 3 -31 13 -42 23 -11 10 -37 27 -57 38 -21 11 -38 23 -38
27 0 5 -7 8 -15 8 -24 0 -28 24 -11 65 9 21 16 48 16 61 0 13 5 24 10 24 6 0
10 60 10 160 0 100 -4 160 -10 160 -5 0 -10 16 -10 35 0 19 -4 35 -9 35 -5 0
-12 18 -16 40 -4 22 -11 40 -16 40 -5 0 -9 9 -9 20 0 11 -4 20 -9 20 -5 0 -12
12 -15 26 -4 15 -12 32 -19 40 -26 29 -37 43 -37 48 0 12 -130 135 -149 141
-12 3 -21 11 -21 16 0 5 -7 9 -15 9 -8 0 -15 4 -15 10 0 5 -11 12 -25 16 -14
3 -25 10 -25 15 0 5 -9 9 -20 9 -11 0 -20 4 -20 9 0 5 -20 12 -45 15 -25 4
-45 11 -45 17 0 5 -18 9 -40 9 -22 0 -40 5 -40 10 0 6 -50 10 -129 10 -76 0
-132 -4 -136 -10z m283 -239 c2 -6 12 -11 22 -11 20 0 83 -30 88 -42 2 -5 9
-8 15 -8 7 0 27 -13 45 -30 18 -16 36 -30 40 -32 4 -2 23 -23 42 -48 19 -25
37 -47 40 -50 14 -14 40 -71 40 -89 0 -12 5 -21 10 -21 6 0 10 -13 10 -29 0
-17 5 -33 10 -36 6 -3 10 -50 10 -105 0 -55 -4 -102 -10 -105 -5 -3 -10 -19
-10 -36 0 -16 -4 -29 -10 -29 -5 0 -10 -7 -10 -16 0 -18 -31 -77 -42 -82 -5
-2 -8 -9 -8 -14 0 -17 -132 -144 -157 -152 -13 -4 -23 -12 -23 -17 0 -5 -9 -9
-20 -9 -11 0 -20 -4 -20 -10 0 -5 -18 -13 -40 -16 -22 -4 -40 -10 -40 -15 0
-5 -58 -9 -130 -9 -71 0 -130 4 -130 9 0 5 -18 11 -40 15 -22 3 -40 11 -40 16
0 6 -7 10 -15 10 -14 0 -51 20 -83 45 -56 44 -142 143 -142 164 0 6 -4 11 -10
11 -5 0 -10 9 -10 20 0 11 -4 20 -10 20 -5 0 -12 23 -16 50 -4 28 -10 50 -15
50 -5 0 -9 45 -9 100 0 60 4 100 10 100 6 0 10 15 10 33 0 46 62 161 125 231
26 29 91 76 104 76 6 0 11 4 11 8 0 10 65 42 85 42 8 0 15 4 15 9 0 14 60 19
190 16 73 -2 116 -7 118 -14z m-539 -1137 c23 -10 41 -22 41 -26 0 -4 16 -10
35 -14 19 -3 35 -10 35 -15 0 -5 8 -9 18 -9 10 0 22 -4 28 -10 5 -5 45 -13 87
-16 42 -4 77 -11 77 -15 0 -5 32 -9 70 -9 39 0 70 4 70 9 0 4 35 11 78 15 42
3 79 11 80 16 2 6 15 10 28 10 13 0 24 4 24 9 0 5 16 12 35 15 19 4 35 11 35
15 0 5 8 11 18 15 17 6 53 27 62 37 3 3 23 18 45 35 22 16 50 41 63 56 24 28
43 28 70 1 7 -7 20 -13 28 -13 8 0 14 -4 14 -10 0 -5 7 -10 15 -10 8 0 15 -4
15 -10 0 -5 11 -12 25 -16 14 -3 25 -9 25 -13 0 -4 15 -15 33 -26 17 -10 34
-21 37 -24 3 -4 22 -15 43 -26 20 -11 37 -23 37 -27 0 -5 9 -8 19 -8 11 0 21
-4 23 -8 4 -10 105 -72 118 -72 6 0 10 -4 10 -9 0 -5 8 -12 18 -15 10 -4 27
-14 38 -24 11 -9 35 -26 54 -36 19 -11 37 -22 40 -25 9 -10 44 -31 63 -37 9
-4 17 -10 17 -14 0 -4 11 -11 25 -14 14 -4 25 -11 25 -16 0 -6 7 -10 15 -10 8
0 15 -4 15 -9 0 -5 11 -12 25 -15 14 -4 25 -11 25 -16 0 -6 7 -10 15 -10 8 0
15 -4 15 -10 0 -5 11 -12 25 -16 14 -3 25 -10 25 -15 0 -5 7 -9 15 -9 8 0 15
-4 15 -9 0 -5 11 -12 25 -15 14 -4 25 -11 25 -16 0 -6 7 -10 15 -10 8 0 15 -4
15 -8 0 -5 19 -18 43 -31 47 -24 79 -43 87 -51 10 -10 45 -31 63 -36 9 -4 17
-9 17 -13 0 -4 17 -15 38 -26 20 -11 43 -26 50 -32 7 -7 18 -13 24 -13 6 0 18
-8 27 -17 9 -10 34 -28 56 -40 34 -18 40 -26 37 -50 -2 -15 -8 -29 -13 -31 -5
-2 -9 -19 -9 -37 0 -18 -5 -35 -12 -37 -17 -6 -17 -323 0 -340 7 -7 12 -25 12
-40 0 -15 5 -28 10 -28 6 0 10 -7 10 -16 0 -17 30 -86 41 -94 3 -3 10 -16 14
-29 4 -13 18 -35 31 -48 13 -13 24 -27 24 -32 0 -19 166 -171 188 -171 6 0 12
-3 14 -7 5 -12 64 -43 82 -43 9 0 16 -4 16 -10 0 -5 8 -10 18 -10 10 0 22 -4
28 -10 5 -5 38 -13 72 -16 l62 -7 -2 -786 -3 -786 -42 -3 c-24 -2 -43 -7 -43
-13 0 -5 -11 -9 -25 -9 -14 0 -25 -4 -25 -9 0 -5 -18 -11 -40 -15 -22 -3 -40
-11 -40 -16 0 -6 -9 -10 -20 -10 -11 0 -20 -4 -20 -9 0 -5 -10 -13 -22 -17
-13 -4 -25 -10 -28 -13 -3 -4 -16 -15 -30 -24 -40 -27 -150 -140 -150 -153 0
-7 -4 -14 -9 -16 -13 -5 -61 -86 -61 -103 0 -8 -4 -15 -10 -15 -5 0 -13 -18
-16 -40 -4 -22 -10 -40 -15 -40 -5 0 -9 -13 -9 -28 0 -15 -6 -34 -12 -40 -18
-18 -17 -317 0 -334 7 -7 12 -25 12 -40 0 -15 5 -28 10 -28 6 0 10 -9 10 -20
0 -19 -63 -70 -87 -70 -7 0 -13 -4 -13 -9 0 -5 -8 -11 -17 -15 -18 -5 -53 -26
-63 -36 -3 -3 -23 -14 -45 -25 -22 -11 -42 -22 -45 -25 -3 -3 -22 -14 -42 -24
-21 -11 -38 -23 -38 -27 0 -4 -13 -10 -30 -14 -16 -4 -30 -11 -30 -16 0 -5 -7
-9 -15 -9 -8 0 -15 -4 -15 -10 0 -5 -11 -12 -25 -16 -14 -3 -25 -9 -25 -13 0
-4 -20 -15 -45 -26 -25 -11 -45 -23 -45 -27 0 -5 -7 -8 -15 -8 -8 0 -15 -4
-15 -10 0 -5 -11 -12 -25 -16 -14 -3 -25 -9 -25 -13 0 -4 -20 -15 -45 -26 -25
-11 -45 -23 -45 -27 0 -5 -7 -8 -15 -8 -8 0 -15 -4 -15 -10 0 -5 -11 -12 -25
-16 -14 -3 -25 -10 -25 -14 0 -4 -10 -10 -23 -14 -12 -3 -31 -13 -43 -23 -11
-10 -43 -30 -72 -45 -82 -42 -115 -62 -130 -76 -7 -6 -20 -12 -28 -12 -8 0
-14 -4 -14 -10 0 -5 -7 -10 -15 -10 -8 0 -15 -4 -15 -9 0 -5 -11 -12 -25 -15
-14 -4 -25 -11 -25 -16 0 -6 -9 -10 -20 -10 -11 0 -20 -4 -20 -10 0 -5 -11
-12 -25 -16 -14 -3 -25 -10 -25 -15 0 -5 -7 -9 -15 -9 -8 0 -15 -4 -15 -10 0
-5 -6 -10 -14 -10 -8 0 -21 -6 -28 -12 -7 -7 -27 -21 -44 -30 l-31 -17 -55 52
c-78 75 -126 112 -160 123 -10 4 -18 10 -18 15 0 4 -16 11 -35 15 -19 3 -35
10 -35 15 0 5 -10 9 -23 9 -13 0 -28 5 -34 11 -6 6 -45 13 -87 16 -42 3 -76
10 -76 14 0 5 -25 9 -55 9 -30 0 -55 -4 -55 -9 0 -4 -37 -11 -81 -14 -45 -3
-86 -10 -92 -16 -6 -6 -21 -11 -34 -11 -13 0 -23 -4 -23 -9 0 -5 -16 -12 -35
-15 -19 -4 -35 -11 -35 -16 0 -6 -7 -10 -15 -10 -8 0 -15 -4 -15 -9 0 -5 -11
-12 -25 -15 -14 -4 -25 -11 -25 -16 0 -6 -5 -10 -10 -10 -6 0 -39 -29 -74 -64
-49 -50 -68 -64 -85 -59 -11 3 -21 9 -21 14 0 5 -7 9 -15 9 -8 0 -15 4 -15 10
0 5 -11 12 -25 16 -14 3 -25 10 -25 15 0 5 -7 9 -15 9 -8 0 -15 4 -15 9 0 5
-13 12 -30 16 -16 4 -30 11 -30 16 0 5 -7 9 -15 9 -8 0 -15 4 -15 10 0 5 -11
12 -25 16 -14 3 -25 9 -25 13 0 3 -18 15 -40 25 -22 11 -40 23 -40 28 0 4 -9
8 -20 8 -11 0 -20 5 -20 10 0 6 -6 10 -14 10 -8 0 -21 6 -28 13 -7 6 -29 21
-48 31 -19 11 -37 22 -40 25 -3 4 -23 15 -45 26 -22 11 -42 22 -45 25 -3 3
-23 14 -45 25 -22 11 -46 26 -53 32 -7 7 -20 13 -28 13 -8 0 -14 5 -14 10 0 6
-7 10 -15 10 -8 0 -15 5 -15 10 0 6 -6 10 -14 10 -8 0 -21 6 -28 13 -8 6 -23
17 -33 23 -75 41 -91 50 -95 55 -3 4 -15 9 -27 13 -13 4 -23 12 -23 17 0 5 -7
9 -15 9 -8 0 -15 4 -15 9 0 5 -11 12 -25 15 -14 4 -25 11 -25 16 0 6 -9 10
-20 10 -11 0 -20 5 -20 10 0 6 -6 10 -14 10 -8 0 -21 6 -28 13 -7 6 -31 21
-53 32 -22 11 -48 28 -59 37 -10 10 -23 15 -28 12 -4 -3 -8 0 -8 5 0 6 -7 11
-15 11 -8 0 -15 3 -15 8 0 4 -21 16 -46 27 -47 21 -66 54 -45 79 6 7 14 41 17
75 4 33 11 61 15 61 5 0 9 43 9 95 0 52 -4 95 -9 95 -4 0 -11 30 -14 67 -4 37
-11 71 -17 77 -5 5 -10 18 -10 28 0 10 -4 18 -9 18 -5 0 -12 15 -15 33 -3 19
-15 43 -25 54 -10 11 -22 29 -25 41 -4 12 -12 22 -17 22 -5 0 -9 5 -9 11 0 16
-160 169 -176 169 -8 0 -14 4 -14 8 0 5 -18 17 -40 28 -22 10 -40 22 -40 26 0
3 -18 9 -40 13 -22 4 -40 11 -40 16 0 5 -11 9 -24 9 -14 0 -28 5 -31 10 -3 5
-22 10 -41 10 l-34 0 0 789 0 788 60 7 c33 4 60 11 60 16 0 6 11 10 25 10 14
0 25 5 25 10 0 6 5 10 11 10 13 0 79 30 97 45 7 5 19 16 27 23 7 6 18 12 23
12 12 0 152 140 152 152 0 8 5 15 35 51 14 16 45 82 45 96 0 6 5 11 10 11 6 0
10 10 10 23 0 13 4 27 10 33 5 5 13 38 16 72 4 34 11 62 15 62 5 0 9 45 9 100
0 55 -4 100 -9 100 -4 0 -11 28 -15 62 -3 34 -11 67 -16 72 -6 6 -10 20 -10
33 0 13 -4 23 -10 23 -24 0 -7 17 35 35 25 11 45 23 45 28 0 4 7 7 15 7 8 0
15 4 15 9 0 5 11 12 25 15 14 4 25 11 25 16 0 6 7 10 15 10 8 0 15 4 15 10 0
5 11 12 25 16 14 3 25 10 25 14 0 4 8 10 18 14 17 5 52 26 62 36 10 10 45 31
63 36 9 4 17 9 17 13 0 4 17 15 38 26 20 11 43 26 50 32 7 7 20 13 28 13 8 0
14 5 14 10 0 6 7 10 15 10 8 0 15 4 15 10 0 5 11 12 25 16 14 3 25 10 25 15 0
5 7 9 15 9 8 0 15 4 15 10 0 5 11 12 25 16 14 3 25 10 25 15 0 5 7 9 15 9 8 0
15 4 15 10 0 5 11 12 25 16 14 3 25 10 25 15 0 5 7 9 15 9 8 0 15 4 15 10 0 5
11 12 25 16 14 3 25 9 25 13 0 3 17 15 38 26 20 11 39 22 42 26 3 3 20 14 38
24 17 11 32 22 32 26 0 4 10 9 23 13 12 3 32 13 43 23 27 24 55 42 77 49 9 4
17 10 17 15 0 5 6 9 14 9 8 0 21 6 28 13 7 7 20 16 28 20 17 8 53 30 60 37 8
8 41 28 78 46 17 9 32 20 32 24 0 4 11 11 25 14 14 4 25 11 25 16 0 6 7 10 15
10 8 0 15 4 15 8 0 4 31 -22 69 -58 38 -36 88 -75 110 -86z m-2211 -584 c2 -5
12 -10 22 -10 23 0 90 -31 90 -41 0 -4 10 -9 23 -13 28 -7 137 -106 137 -123
0 -7 4 -13 8 -13 5 0 17 -18 28 -40 10 -22 22 -40 26 -40 3 0 9 -18 13 -40 4
-22 11 -42 16 -46 5 -3 9 -25 9 -49 0 -24 5 -47 10 -50 6 -3 10 -19 10 -36 0
-16 -4 -29 -10 -29 -5 0 -10 -22 -10 -49 0 -28 -4 -52 -9 -55 -5 -4 -12 -24
-16 -46 -4 -22 -10 -40 -13 -40 -4 0 -16 -18 -26 -40 -11 -22 -23 -40 -28 -40
-4 0 -8 -5 -8 -12 0 -15 -82 -98 -97 -98 -7 0 -13 -4 -13 -8 0 -5 -18 -17 -40
-28 -22 -10 -40 -22 -40 -26 0 -4 -18 -11 -40 -14 -22 -4 -40 -10 -40 -15 0
-5 -22 -9 -50 -9 -27 0 -50 -4 -50 -10 0 -5 -20 -10 -45 -10 -25 0 -45 5 -45
10 0 6 -20 10 -45 10 -25 0 -45 4 -45 9 0 5 -18 11 -40 15 -22 3 -40 11 -40
16 0 6 -9 10 -20 10 -11 0 -20 4 -20 9 0 5 -10 13 -22 17 -27 8 -158 140 -158
159 0 7 -3 15 -7 17 -12 5 -43 77 -43 99 0 11 -4 18 -9 15 -5 -3 -12 28 -16
69 -8 85 3 228 16 219 5 -3 9 6 9 20 0 25 29 88 43 94 4 2 7 10 7 18 0 19 132
150 160 159 11 3 20 10 20 15 0 5 13 11 30 15 16 4 32 11 35 16 4 5 17 9 31 9
13 0 24 4 24 9 0 6 17 12 38 14 61 8 237 -2 240 -13z m5480 0 c2 -5 14 -10 27
-10 13 0 26 -4 30 -9 3 -5 19 -12 35 -16 17 -4 30 -10 30 -15 0 -5 9 -11 19
-15 29 -9 161 -144 161 -165 0 -5 5 -10 10 -10 6 0 10 -3 9 -7 -2 -15 13 -53
21 -53 5 0 12 -25 15 -55 4 -30 11 -55 16 -55 12 0 12 -167 0 -174 -5 -3 -12
-31 -16 -61 -3 -30 -10 -55 -14 -55 -5 0 -11 -12 -14 -27 -13 -59 -186 -233
-231 -233 -9 0 -16 -4 -16 -10 0 -5 -18 -13 -40 -16 -22 -4 -40 -10 -40 -15 0
-5 -22 -9 -50 -9 -27 0 -50 -4 -50 -10 0 -5 -20 -10 -45 -10 -25 0 -45 5 -45
10 0 6 -20 10 -45 10 -25 0 -45 4 -45 9 0 5 -18 11 -40 15 -22 3 -40 11 -40
16 0 6 -7 10 -15 10 -15 0 -25 6 -60 38 -7 6 -16 12 -20 12 -15 0 -80 63 -100
98 -11 18 -22 32 -26 32 -4 0 -10 14 -14 30 -4 17 -11 30 -16 30 -5 0 -9 9 -9
19 0 11 -6 21 -12 24 -10 3 -13 47 -13 177 0 130 3 174 13 178 6 2 12 12 12
23 0 10 4 19 9 19 5 0 12 11 15 25 4 14 14 35 24 47 34 45 145 148 157 148 7
0 15 3 17 8 5 11 76 42 98 42 11 0 20 4 20 9 0 6 19 12 43 14 67 7 232 -2 235
-13z m-5485 -3040 c31 -7 57 -15 57 -20 0 -4 12 -10 28 -13 15 -3 37 -15 49
-26 12 -12 26 -21 31 -21 14 0 112 -96 112 -109 0 -6 4 -11 10 -11 5 0 12 -11
16 -25 3 -14 10 -25 15 -25 5 0 9 -9 9 -20 0 -11 4 -20 10 -20 5 0 13 -18 16
-40 4 -22 10 -40 15 -40 5 0 9 -20 9 -45 0 -25 6 -54 12 -65 10 -16 10 -24 0
-40 -6 -11 -12 -42 -12 -70 0 -27 -4 -50 -9 -50 -5 0 -11 -18 -15 -40 -3 -22
-10 -40 -14 -40 -4 0 -16 -18 -26 -40 -11 -22 -23 -40 -28 -40 -4 0 -8 -5 -8
-11 0 -6 -6 -17 -12 -24 -7 -8 -18 -20 -24 -27 -7 -7 -26 -24 -44 -38 -18 -14
-37 -29 -44 -35 -20 -17 -77 -45 -91 -45 -7 0 -15 -5 -17 -11 -2 -6 -34 -13
-71 -16 -37 -3 -70 -10 -73 -14 -7 -12 -71 -12 -78 0 -3 4 -34 11 -68 14 -34
3 -64 10 -66 16 -2 6 -15 11 -28 11 -13 0 -24 4 -24 9 0 5 -9 13 -21 16 -29 9
-53 29 -126 104 -35 35 -63 69 -63 76 0 7 -3 15 -7 17 -13 5 -43 68 -43 88 0
10 -6 20 -12 22 -18 6 -18 280 0 285 6 3 12 13 12 23 0 22 29 89 48 108 6 7
12 17 12 21 0 13 104 117 138 136 17 11 32 22 32 26 0 4 14 10 30 14 17 4 30
10 30 15 0 4 24 11 53 15 28 4 59 11 67 16 19 11 136 5 213 -11z m5480 0 c31
-7 57 -16 57 -21 0 -5 8 -9 18 -9 9 0 35 -12 57 -26 52 -35 155 -135 155 -151
0 -7 3 -13 8 -13 10 0 42 -58 42 -76 0 -8 4 -14 10 -14 5 0 12 -23 16 -50 4
-28 11 -53 15 -56 12 -7 12 -171 0 -178 -5 -4 -12 -29 -16 -56 -4 -28 -11 -50
-16 -50 -5 0 -9 -6 -9 -14 0 -18 -32 -76 -42 -76 -5 0 -8 -5 -8 -11 0 -10 -98
-110 -132 -134 -28 -20 -80 -45 -93 -45 -7 0 -15 -5 -17 -10 -2 -6 -33 -13
-71 -17 -37 -3 -67 -10 -67 -14 0 -5 -20 -9 -45 -9 -25 0 -45 4 -45 9 0 4 -28
11 -62 14 -34 3 -64 10 -66 16 -2 6 -10 11 -17 11 -17 0 -73 30 -99 53 -11 9
-23 17 -28 17 -10 0 -88 78 -88 88 0 5 -8 17 -17 28 -23 26 -53 82 -53 99 0 7
-6 15 -12 17 -10 4 -13 47 -13 173 0 126 3 169 13 172 6 3 12 16 12 29 0 13 4
24 9 24 5 0 12 11 15 25 7 29 31 59 98 124 67 65 120 101 152 101 9 0 16 4 16
9 0 5 22 12 50 16 27 4 53 11 56 17 7 12 138 5 217 -12z m-2749 -1609 c4 -5
24 -12 46 -16 22 -4 40 -11 40 -16 0 -5 9 -9 20 -9 11 0 20 -4 20 -9 0 -5 10
-13 23 -17 26 -8 157 -134 157 -151 0 -7 3 -13 8 -13 8 0 42 -73 42 -90 0 -6
5 -10 10 -10 6 0 10 -13 10 -29 0 -17 5 -33 10 -36 6 -3 10 -52 10 -110 0 -58
-4 -107 -10 -110 -5 -3 -10 -17 -10 -31 0 -13 -4 -24 -10 -24 -5 0 -10 -7 -10
-16 0 -21 -30 -83 -52 -109 -9 -11 -26 -31 -37 -43 -11 -13 -21 -27 -23 -30
-6 -13 -86 -72 -97 -72 -6 0 -11 -4 -11 -8 0 -10 -71 -42 -93 -42 -8 0 -17 -6
-20 -12 -3 -10 -41 -13 -147 -13 -106 0 -144 3 -148 13 -2 6 -12 12 -22 12
-23 0 -90 31 -90 41 0 4 -8 9 -17 13 -53 17 -156 123 -169 173 -3 13 -10 23
-15 23 -5 0 -9 9 -9 19 0 11 -5 21 -11 23 -5 2 -13 22 -16 46 -3 23 -10 42
-14 42 -5 0 -9 47 -9 105 0 58 4 105 9 105 5 0 11 23 15 50 4 28 11 50 16 50
6 0 10 9 10 20 0 11 5 20 10 20 6 0 10 5 10 11 0 39 160 194 213 206 15 3 27
9 27 14 0 5 18 12 40 15 22 4 40 10 40 15 0 12 247 12 254 0z"/>
<path d="M3255 5755 c-114 -24 -224 -86 -318 -180 -60 -61 -147 -188 -147
-215 0 -6 -7 -24 -15 -39 -22 -44 -46 -175 -47 -255 0 -162 45 -295 161 -476
30 -47 60 -89 66 -95 6 -5 36 -41 67 -80 73 -91 321 -334 613 -600 54 -49 134
-124 178 -165 44 -41 91 -83 106 -92 33 -23 99 -23 131 -1 21 14 154 134 276
248 17 17 83 77 145 135 152 140 457 444 500 498 19 24 39 49 45 55 45 49 150
230 180 309 55 148 59 373 8 503 -54 138 -116 229 -210 308 -144 122 -319 175
-493 150 -113 -17 -205 -67 -316 -170 -58 -54 -172 -204 -188 -247 -6 -16 -10
-14 -32 18 -14 20 -25 40 -25 43 0 20 -152 189 -223 248 -21 18 -91 59 -129
77 -83 38 -220 47 -333 23z"/>
<path d="M2205 4889 c-70 -36 -80 -59 -79 -174 1 -55 9 -136 17 -180 9 -44 18
-102 22 -130 3 -27 12 -90 20 -140 29 -184 58 -373 105 -690 34 -230 53 -302
105 -407 59 -116 73 -132 411 -453 104 -99 199 -194 212 -212 24 -35 29 -85
11 -130 -16 -43 -28 -125 -22 -156 7 -35 39 -52 123 -66 36 -6 94 -18 130 -26
36 -7 110 -23 165 -34 55 -11 134 -27 175 -35 41 -8 89 -18 106 -21 43 -8 80
9 100 46 23 45 53 314 61 541 6 177 5 190 -17 260 -46 142 -131 257 -252 339
-31 22 -59 39 -62 39 -4 0 -46 18 -176 78 -14 7 -34 18 -44 24 -57 38 -177
119 -222 150 -74 52 -109 68 -149 68 -68 0 -128 -50 -141 -115 -6 -36 8 -71
62 -148 19 -26 34 -49 34 -52 0 -10 87 -131 115 -159 17 -17 76 -54 130 -82
55 -28 137 -70 183 -94 74 -38 105 -70 68 -70 -7 0 -99 43 -205 96 -170 85
-196 102 -236 148 -25 29 -45 58 -45 64 0 6 -3 12 -7 14 -17 7 -133 191 -144
228 -14 46 -1 107 32 149 27 34 24 46 -19 77 -40 29 -39 24 -94 234 -10 41
-28 107 -38 145 -37 140 -50 191 -59 230 -5 22 -21 85 -36 140 -15 55 -31 116
-35 135 -14 61 -58 224 -69 253 -20 51 -61 95 -111 116 -60 26 -75 26 -125 0z"/>
<path d="M5640 4889 c-79 -36 -108 -88 -155 -279 -9 -36 -25 -95 -36 -131 -10
-36 -19 -72 -19 -81 0 -8 -8 -44 -19 -79 -21 -72 -37 -134 -51 -194 -14 -56
-63 -243 -96 -363 -10 -34 -17 -69 -17 -77 0 -8 -18 -27 -39 -41 -21 -15 -39
-32 -39 -38 -3 -23 3 -41 21 -63 24 -31 34 -92 22 -137 -11 -40 -145 -244
-204 -311 -30 -34 -77 -63 -228 -139 -105 -53 -197 -96 -205 -96 -18 0 -19 14
-2 28 11 9 152 85 291 156 33 17 74 45 91 62 35 35 183 253 203 299 35 79 -38
175 -133 175 -41 0 -74 -15 -154 -71 -152 -108 -255 -170 -346 -210 -119 -52
-193 -100 -256 -166 -46 -47 -119 -153 -119 -171 0 -5 -10 -31 -22 -58 -22
-46 -23 -60 -21 -258 3 -228 32 -516 59 -567 23 -46 55 -53 148 -33 45 9 104
20 131 24 28 4 70 13 95 20 25 7 68 16 95 20 68 10 211 38 260 51 80 22 92 59
55 179 -26 84 -25 124 3 163 12 18 94 100 182 183 254 241 340 326 377 374 70
92 133 259 153 410 3 25 12 86 20 135 8 50 23 151 35 225 11 74 26 164 31 200
6 36 17 108 24 160 18 128 33 223 56 356 27 156 26 248 -3 291 -24 34 -89 73
-124 73 -10 0 -39 -10 -64 -21z"/>
<path d="M2516 4648 c4 -13 13 -45 20 -73 7 -27 22 -84 33 -125 22 -83 56
-208 76 -285 7 -27 23 -84 34 -125 31 -116 61 -230 74 -280 10 -36 19 -49 52
-67 22 -12 50 -23 62 -23 40 0 39 28 -11 202 -8 29 -24 89 -36 133 -11 44 -27
103 -35 130 -7 28 -23 86 -35 130 -42 156 -49 181 -70 250 -34 113 -72 155
-141 155 -27 0 -30 -3 -23 -22z"/>
<path d="M5356 4638 c-34 -34 -76 -120 -76 -157 0 -11 -6 -38 -14 -58 -7 -21
-23 -76 -35 -123 -12 -47 -31 -116 -41 -155 -22 -77 -49 -175 -75 -275 -10
-36 -25 -88 -33 -117 -13 -43 -13 -55 -2 -67 16 -20 47 -19 85 3 37 22 47 43
75 151 21 86 50 194 75 285 8 28 24 86 35 130 12 44 28 105 37 135 15 52 32
116 54 205 5 22 12 48 15 58 4 14 -1 17 -30 17 -27 0 -45 -8 -70 -32z"/>
</g>
</svg>
